<svg width="47" height="47" viewBox="0 0 47 47" fill="none" xmlns="http://www.w3.org/2000/svg">
<path d="M23.6092 0.228699C10.6951 0.228699 0.232078 10.6953 0.228516 23.6094C0.232078 36.5199 10.6951 46.9847 23.6092 46.9919C36.5233 46.9847 46.9863 36.5181 46.9881 23.6094C46.9881 10.6953 36.5215 0.23048 23.6092 0.228699ZM23.6092 41.6428C13.652 41.6232 5.59186 33.5666 5.57405 23.6094C5.58064 18.828 7.48283 14.2444 10.8636 10.8633C14.2444 7.48216 18.8278 5.57952 23.6092 5.57245C28.3899 5.57999 32.9727 7.48259 36.353 10.8633C39.7334 14.2439 41.6355 18.8269 41.6426 23.6076C41.6248 33.5648 33.5682 41.6249 23.6092 41.6392V41.6428ZM11.3631 23.6094C11.3631 23.137 11.1754 22.6839 10.8414 22.3499C10.5073 22.0158 10.0543 21.8281 9.58186 21.8281C9.10944 21.8281 8.65637 22.0158 8.32233 22.3499C7.98828 22.6839 7.80061 23.137 7.80061 23.6094C7.80061 24.0818 7.98828 24.5349 8.32233 24.8689C8.65637 25.203 9.10944 25.3906 9.58186 25.3906C10.0543 25.3906 10.5073 25.203 10.8414 24.8689C11.1754 24.5349 11.3631 24.0818 11.3631 23.6094ZM10.5687 29.0814C10.2635 29.2577 10.0174 29.5205 9.86163 29.8367C9.70586 30.1529 9.6474 30.5081 9.69364 30.8575C9.73987 31.207 9.88873 31.5348 10.1214 31.7996C10.354 32.0644 10.66 32.2542 11.0005 32.345C11.3411 32.4358 11.7009 32.4235 12.0345 32.3098C12.3681 32.196 12.6604 31.9858 12.8745 31.7058C13.0886 31.4258 13.2148 31.0886 13.2372 30.7368C13.2595 30.3851 13.177 30.0346 13.0001 29.7298C12.7622 29.3219 12.3727 29.0247 11.9166 28.9029C11.4604 28.7811 10.9746 28.8446 10.5651 29.0796L10.5687 29.0814ZM12.3499 15.0523C12.147 14.9264 11.9209 14.8427 11.6849 14.806C11.449 14.7693 11.2081 14.7804 10.9766 14.8387C10.745 14.897 10.5276 15.0012 10.3371 15.1451C10.1466 15.2891 9.98707 15.4699 9.86787 15.6768C9.74866 15.8837 9.67227 16.1124 9.64322 16.3494C9.61417 16.5864 9.63306 16.8268 9.69877 17.0563C9.76447 17.2859 9.87566 17.4998 10.0257 17.6856C10.1758 17.8713 10.3616 18.0249 10.5722 18.1374C10.9799 18.3512 11.4545 18.3989 11.8965 18.2705C12.3385 18.142 12.7137 17.8475 12.9433 17.4486C13.173 17.0496 13.2393 16.5773 13.1283 16.1306C13.0173 15.6838 12.7395 15.2974 12.3499 15.0523ZM36.6497 18.1374C36.8631 18.0265 37.0518 17.8735 37.2045 17.6878C37.3572 17.502 37.4706 17.2872 37.5381 17.0564C37.6055 16.8256 37.6255 16.5835 37.5969 16.3447C37.5682 16.106 37.4916 15.8755 37.3715 15.6672C37.2513 15.4588 37.0903 15.277 36.898 15.1326C36.7057 14.9882 36.4862 14.8842 36.2527 14.8269C36.0191 14.7696 35.7764 14.7602 35.5391 14.7992C35.3018 14.8383 35.0749 14.9249 34.872 15.054C34.4848 15.3004 34.2077 15.6868 34.0983 16.1325C33.989 16.5782 34.0559 17.0489 34.2852 17.4465C34.5144 17.8441 34.8882 18.1379 35.3288 18.2666C35.7693 18.3953 36.2425 18.349 36.6497 18.1374ZM17.4835 34.2167C17.0761 34.0054 16.6029 33.9594 16.1624 34.0882C15.7219 34.2169 15.348 34.5106 15.1185 34.908C14.889 35.3055 14.8216 35.7761 14.9304 36.222C15.0391 36.6679 15.3156 37.0547 15.7022 37.3019C16.1111 37.5343 16.5954 37.5956 17.0493 37.4724C17.5033 37.3492 17.89 37.0514 18.1252 36.644C18.3604 36.2367 18.4249 35.7528 18.3047 35.2981C18.1845 34.8433 17.8893 34.4546 17.4835 34.2167ZM17.4835 13.002C17.8926 12.7658 18.1911 12.3768 18.3134 11.9205C18.4356 11.4642 18.3716 10.978 18.1354 10.5689C17.9596 10.2639 17.6974 10.0179 17.3818 9.862C17.0662 9.70611 16.7114 9.64732 16.3624 9.69307C16.0134 9.73883 15.6858 9.88707 15.421 10.119C15.1563 10.351 14.9662 10.6563 14.875 10.9963C14.7838 11.3363 14.7955 11.6957 14.9085 12.029C15.0216 12.3624 15.231 12.6547 15.5102 12.869C15.7894 13.0834 16.126 13.2101 16.4772 13.2331C16.8285 13.2561 17.1786 13.1745 17.4835 12.9985V13.002ZM36.6497 29.0814C36.2405 28.8465 35.755 28.783 35.2991 28.9048C34.8432 29.0266 34.4541 29.3238 34.2165 29.7315C33.9978 30.1395 33.9463 30.6166 34.0729 31.0618C34.1995 31.5071 34.4944 31.8857 34.8951 32.1175C35.2958 32.3493 35.7709 32.4162 36.22 32.304C36.6692 32.1918 37.057 31.9094 37.3017 31.5164C37.5377 31.1068 37.6018 30.6204 37.48 30.1637C37.3581 29.707 37.0602 29.3171 36.6515 29.0796L36.6497 29.0814ZM31.518 9.91514C31.1101 9.70179 30.6356 9.65441 30.1937 9.7829C29.7517 9.91139 29.3766 10.2058 29.1467 10.6046C28.9168 11.0033 28.8501 11.4755 28.9604 11.9223C29.0707 12.3692 29.3495 12.7561 29.7385 13.002C29.9413 13.1225 30.1661 13.2014 30.3997 13.2343C30.6333 13.2672 30.8711 13.2533 31.0993 13.1935C31.3275 13.1337 31.5416 13.0292 31.7291 12.886C31.9165 12.7428 32.0737 12.5638 32.1914 12.3593C32.3092 12.1549 32.3851 11.9291 32.4149 11.6951C32.4446 11.4611 32.4276 11.2235 32.3648 10.9961C32.302 10.7687 32.1946 10.556 32.0489 10.3705C31.9032 10.1849 31.7222 10.0301 31.5162 9.91514H31.518ZM37.6455 21.8281C37.173 21.8281 36.72 22.0158 36.3859 22.3499C36.0519 22.6839 35.8642 23.137 35.8642 23.6094C35.8642 24.0818 36.0519 24.5349 36.3859 24.8689C36.72 25.203 37.173 25.3906 37.6455 25.3906C38.1179 25.3906 38.5709 25.203 38.905 24.8689C39.239 24.5349 39.4267 24.0818 39.4267 23.6094C39.4267 23.137 39.239 22.6839 38.905 22.3499C38.5709 22.0158 38.1179 21.8281 37.6455 21.8281ZM23.6092 7.79901C22.6295 7.79901 21.828 8.59701 21.828 9.58026L20.9997 22.66L15.6488 26.1512C15.2397 26.3877 14.9413 26.777 14.8192 27.2334C14.6971 27.6899 14.7613 28.1762 14.9978 28.5853C15.2342 28.9944 15.6235 29.2929 16.08 29.4149C16.5364 29.537 17.0227 29.4728 17.4318 29.2364L23.3206 26.2492C23.4168 26.2617 23.513 26.2795 23.6145 26.2795C25.093 26.2795 26.2864 25.086 26.2864 23.6076L25.3958 9.57848C25.3958 9.10606 25.2081 8.653 24.8741 8.31895C24.54 7.9849 24.087 7.79723 23.6145 7.79723L23.6092 7.79901ZM23.6092 35.859C22.6295 35.859 21.828 36.6553 21.828 37.6403C21.828 38.6253 22.6295 39.4215 23.6092 39.4215C24.5889 39.4215 25.3905 38.6253 25.3905 37.6403C25.3905 36.6553 24.5942 35.859 23.6092 35.859ZM29.7367 34.2167C29.4311 34.3923 29.1844 34.6546 29.0278 34.9704C28.8713 35.2862 28.812 35.6414 28.8575 35.9909C28.9029 36.3405 29.051 36.6687 29.2831 36.934C29.5151 37.1993 29.8207 37.3898 30.1611 37.4814C30.5014 37.573 30.8613 37.5615 31.1952 37.4485C31.529 37.3354 31.8219 37.1259 32.0366 36.8463C32.2513 36.5668 32.3782 36.2298 32.4013 35.8781C32.4244 35.5263 32.3426 35.1757 32.1663 34.8704C32.0495 34.6677 31.8939 34.49 31.7084 34.3474C31.5229 34.2049 31.3111 34.1003 31.0852 34.0395C30.8592 33.9788 30.6235 33.9632 30.3915 33.9936C30.1595 34.024 29.9358 34.0998 29.7331 34.2167H29.7367Z" fill="#D9CEBC"/>
</svg>
