<svg width="20" height="20" viewBox="0 0 20 20" fill="none" xmlns="http://www.w3.org/2000/svg">
<path d="M11.0572 3.05731C11.3072 2.80735 11.6463 2.66693 11.9998 2.66693C12.3534 2.66693 12.6925 2.80735 12.9425 3.05731L18.9425 9.05731C19.1925 9.30735 19.3329 9.64643 19.3329 9.99998C19.3329 10.3535 19.1925 10.6926 18.9425 10.9426L12.9425 16.9426C12.691 17.1855 12.3542 17.3199 12.0046 17.3169C11.655 17.3138 11.3206 17.1736 11.0734 16.9264C10.8262 16.6792 10.686 16.3448 10.6829 15.9952C10.6799 15.6456 10.8143 15.3088 11.0572 15.0573L14.6665 11.3333H1.99984C1.64622 11.3333 1.30708 11.1928 1.05703 10.9428C0.80698 10.6927 0.666504 10.3536 0.666504 9.99998C0.666504 9.64636 0.80698 9.30722 1.05703 9.05717C1.30708 8.80712 1.64622 8.66665 1.99984 8.66665H14.6665L11.0572 4.94265C10.8072 4.69261 10.6668 4.35353 10.6668 3.99998C10.6668 3.64643 10.8072 3.30735 11.0572 3.05731Z" fill="#362419"/>
</svg>
