<svg width="49" height="49" viewBox="0 0 49 49" fill="none" xmlns="http://www.w3.org/2000/svg">
<path fill-rule="evenodd" clip-rule="evenodd" d="M15 7.875C15 5.98533 15.7507 4.17306 17.0869 2.83686C18.4231 1.50067 20.2353 0.75 22.125 0.75H41.125C43.0147 0.75 44.8269 1.50067 46.1631 2.83686C47.4993 4.17306 48.25 5.98533 48.25 7.875V41.125C48.25 43.0147 47.4993 44.8269 46.1631 46.1631C44.8269 47.4993 43.0147 48.25 41.125 48.25H22.125C20.2353 48.25 18.4231 47.4993 17.0869 46.1631C15.7507 44.8269 15 43.0147 15 41.125V7.875ZM22.125 5.5C21.4951 5.5 20.891 5.75022 20.4456 6.19562C20.0002 6.64102 19.75 7.24511 19.75 7.875V41.125C19.75 41.7549 20.0002 42.359 20.4456 42.8044C20.891 43.2498 21.4951 43.5 22.125 43.5H41.125C41.7549 43.5 42.359 43.2498 42.8044 42.8044C43.2498 42.359 43.5 41.7549 43.5 41.125V7.875C43.5 7.24511 43.2498 6.64102 42.8044 6.19562C42.359 5.75022 41.7549 5.5 41.125 5.5H22.125Z" fill="#D9CEBC"/>
<path fill-rule="evenodd" clip-rule="evenodd" d="M0.75 22.125C0.75 20.2353 1.50067 18.4231 2.83686 17.0869C4.17306 15.7507 5.98533 15 7.875 15H18.5625V19.75H7.875C7.24511 19.75 6.64102 20.0002 6.19562 20.4456C5.75022 20.891 5.5 21.4951 5.5 22.125V41.125C5.5 41.7549 5.75022 42.359 6.19562 42.8044C6.64102 43.2498 7.24511 43.5 7.875 43.5H30.4375V48.25H7.875C5.98533 48.25 4.17306 47.4993 2.83686 46.1631C1.50067 44.8269 0.75 43.0147 0.75 41.125V22.125Z" fill="#D9CEBC"/>
<path fill-rule="evenodd" clip-rule="evenodd" d="M24.5 36.375C24.5 35.1152 25.0004 33.907 25.8912 33.0162C26.782 32.1254 27.9902 31.625 29.25 31.625H34C35.2598 31.625 36.468 32.1254 37.3588 33.0162C38.2496 33.907 38.75 35.1152 38.75 36.375V43.5H34V36.375H29.25V43.5H24.5V36.375Z" fill="#D9CEBC"/>
<path d="M24.5 10.25C24.5 9.62011 24.7502 9.01602 25.1956 8.57062C25.641 8.12522 26.2451 7.875 26.875 7.875C27.5049 7.875 28.109 8.12522 28.5544 8.57062C28.9998 9.01602 29.25 9.62011 29.25 10.25V12.625C29.25 13.2549 28.9998 13.859 28.5544 14.3044C28.109 14.7498 27.5049 15 26.875 15C26.2451 15 25.641 14.7498 25.1956 14.3044C24.7502 13.859 24.5 13.2549 24.5 12.625V10.25ZM24.5 22.125C24.5 21.4951 24.7502 20.891 25.1956 20.4456C25.641 20.0002 26.2451 19.75 26.875 19.75C27.5049 19.75 28.109 20.0002 28.5544 20.4456C28.9998 20.891 29.25 21.4951 29.25 22.125V24.5C29.25 25.1299 28.9998 25.734 28.5544 26.1794C28.109 26.6248 27.5049 26.875 26.875 26.875C26.2451 26.875 25.641 26.6248 25.1956 26.1794C24.7502 25.734 24.5 25.1299 24.5 24.5V22.125ZM7.875 31.625C7.875 30.9951 8.12522 30.391 8.57062 29.9456C9.01602 29.5002 9.62011 29.25 10.25 29.25C10.8799 29.25 11.484 29.5002 11.9294 29.9456C12.3748 30.391 12.625 30.9951 12.625 31.625V34C12.625 34.6299 12.3748 35.234 11.9294 35.6794C11.484 36.1248 10.8799 36.375 10.25 36.375C9.62011 36.375 9.01602 36.1248 8.57062 35.6794C8.12522 35.234 7.875 34.6299 7.875 34V31.625ZM34 10.25C34 9.62011 34.2502 9.01602 34.6956 8.57062C35.141 8.12522 35.7451 7.875 36.375 7.875C37.0049 7.875 37.609 8.12522 38.0544 8.57062C38.4998 9.01602 38.75 9.62011 38.75 10.25V12.625C38.75 13.2549 38.4998 13.859 38.0544 14.3044C37.609 14.7498 37.0049 15 36.375 15C35.7451 15 35.141 14.7498 34.6956 14.3044C34.2502 13.859 34 13.2549 34 12.625V10.25ZM34 22.125C34 21.4951 34.2502 20.891 34.6956 20.4456C35.141 20.0002 35.7451 19.75 36.375 19.75C37.0049 19.75 37.609 20.0002 38.0544 20.4456C38.4998 20.891 38.75 21.4951 38.75 22.125V24.5C38.75 25.1299 38.4998 25.734 38.0544 26.1794C37.609 26.6248 37.0049 26.875 36.375 26.875C35.7451 26.875 35.141 26.6248 34.6956 26.1794C34.2502 25.734 34 25.1299 34 24.5V22.125Z" fill="#D9CEBC"/>
</svg>
