<svg width="47" height="47" viewBox="0 0 47 47" fill="none" xmlns="http://www.w3.org/2000/svg">
<path d="M3.91094 11.4469C3.8983 11.2133 3.83978 10.9844 3.73872 10.7735C3.63765 10.5625 3.49602 10.3734 3.3219 10.2172C3.14778 10.0609 2.9446 9.94052 2.72394 9.86279C2.50328 9.78506 2.26948 9.75156 2.03587 9.76419C1.80227 9.77682 1.57344 9.83534 1.36245 9.93641C1.15146 10.0375 0.962442 10.1791 0.80619 10.3532C0.649938 10.5273 0.529511 10.7305 0.451784 10.9512C0.374057 11.1718 0.340553 11.4056 0.353185 11.6393L3.91094 11.4469ZM6.20518 2.3435C5.89327 2.68821 5.72847 3.1412 5.74598 3.60576C5.76349 4.07031 5.96193 4.50961 6.29891 4.82985C6.6359 5.1501 7.08473 5.32591 7.54957 5.31975C8.01442 5.31359 8.45843 5.12594 8.78681 4.79688L6.20518 2.3435ZM20.3269 42.0535C20.525 42.1811 20.7464 42.2682 20.9784 42.3097C21.2103 42.3512 21.4482 42.3462 21.6783 42.2951C21.9083 42.244 22.1259 42.1477 22.3184 42.0119C22.511 41.8761 22.6747 41.7035 22.8001 41.5039C22.9255 41.3044 23.01 41.082 23.0488 40.8496C23.0876 40.6172 23.0799 40.3794 23.0262 40.1499C22.9724 39.9205 22.8737 39.704 22.7357 39.513C22.5977 39.322 22.4231 39.1603 22.2222 39.0373L20.3269 42.0535ZM30.8933 42.6378C30.4307 42.5411 29.9485 42.6321 29.553 42.8909C29.1575 43.1497 28.881 43.555 28.7843 44.0176C28.6876 44.4803 28.7787 44.9624 29.0375 45.3579C29.2962 45.7534 29.7015 46.0299 30.1642 46.1266L30.8933 42.6378ZM32.1568 31.917L33.2374 30.777L30.6534 28.3236L29.5728 29.4636L32.1568 31.917ZM36.7976 30.2973L41.3338 32.9098L43.1127 29.8223L38.5741 27.2098L36.7976 30.2973ZM42.2102 38.3248L38.8353 41.8754L41.4193 44.3311L44.7918 40.7781L42.2102 38.3248ZM14.8526 32.9026C5.64706 23.2103 4.10331 15.0331 3.91094 11.4469L0.353185 11.6393C0.590685 16.033 2.45268 25.02 12.2709 35.356L14.8526 32.9026ZM18.1206 17.1398L18.7998 16.4225L16.2182 13.9691L15.5366 14.6864L18.1206 17.1398ZM19.3366 7.49251L16.3417 3.25788L13.4323 5.31463L16.4248 9.54925L19.3366 7.49251ZM16.8262 15.9119C16.3988 15.4999 15.9673 15.0922 15.5318 14.6888L15.5271 14.6935L15.5199 14.7006L15.4012 14.8384C15.1686 15.1467 14.9844 15.4887 14.8549 15.8525C14.6222 16.5056 14.4987 17.3701 14.6554 18.4484C14.9642 20.5669 16.3536 23.4145 19.9802 27.2359L22.5642 24.7801C19.1727 21.2105 18.3367 19.0136 18.1799 17.9306C18.1039 17.4081 18.1799 17.135 18.2108 17.0471L18.2298 17.002L18.1633 17.0899L18.1206 17.1398L16.8262 15.9119ZM19.9802 27.2335C23.5973 31.043 26.3286 32.5393 28.4114 32.8789C29.4826 33.0523 30.3494 32.9121 31.0049 32.6533C31.3693 32.5117 31.7079 32.3111 32.0072 32.0595L32.0903 31.9788L32.1236 31.9455L32.1402 31.9313L32.1473 31.9241L32.1497 31.9194C32.1497 31.9194 32.1544 31.917 30.8624 30.6891C29.5704 29.4636 29.5728 29.4613 29.5728 29.4589L29.5776 29.4565L29.5823 29.4494L29.5966 29.4375L29.7082 29.3378C29.7304 29.3251 29.7264 29.3259 29.6963 29.3401C29.6488 29.3591 29.4351 29.4351 28.9838 29.3615C28.0291 29.2048 25.9676 28.364 22.5642 24.7801L19.9802 27.2335ZM16.3417 3.25788C13.9334 -0.147871 9.11693 -0.724996 6.20518 2.3435L8.78681 4.79688C10.0289 3.49063 12.2163 3.59275 13.4323 5.31463L16.3417 3.25788ZM38.8353 41.8754C38.1727 42.5736 37.4816 42.9489 36.8071 43.0154L37.1562 46.5589C38.9303 46.3855 40.3672 45.4403 41.4193 44.3311L38.8353 41.8754ZM18.7998 16.4225C21.0988 14.0024 21.2603 10.2166 19.3366 7.49251L16.4272 9.54925C17.4294 10.9671 17.2751 12.8576 16.2182 13.9691L18.7998 16.4225ZM41.3338 32.9098C43.2837 34.0331 43.6661 36.7929 42.2102 38.3248L44.7918 40.7781C47.8912 37.5149 46.9887 32.0548 43.1127 29.8223L41.3338 32.9098ZM33.2374 30.777C34.1518 29.8128 35.5792 29.5966 36.7976 30.2973L38.5741 27.2098C35.9639 25.7088 32.7316 26.1386 30.6534 28.3236L33.2374 30.777ZM22.2222 39.0373C19.8876 37.5695 17.4009 35.584 14.8526 32.9026L12.2709 35.356C15.0117 38.2416 17.7263 40.4195 20.3269 42.0535L22.2222 39.0373ZM36.8047 43.0154C34.8265 43.188 32.8335 43.0607 30.8933 42.6378L30.1642 46.1266C32.4597 46.6226 34.8171 46.7684 37.1562 46.5589L36.8047 43.0154Z" fill="#D9CEBC"/>
</svg>
