<svg width="49" height="49" viewBox="0 0 49 49" fill="none" xmlns="http://www.w3.org/2000/svg">
<path d="M24.5 0.75C37.6171 0.75 48.25 11.3829 48.25 24.5C48.25 37.6171 37.6171 48.25 24.5 48.25C20.4577 48.2557 16.4813 47.2255 12.9504 45.2575L12.226 44.8348L5.02502 46.9533C4.63315 47.0687 4.21828 47.0822 3.81974 46.9924C3.42121 46.9026 3.0522 46.7125 2.74772 46.4402C2.44324 46.1678 2.21336 45.8222 2.07988 45.436C1.94641 45.0499 1.91375 44.6361 1.98502 44.2339L2.04677 43.975L4.16527 36.774C1.92577 33.072 0.744508 28.8267 0.750019 24.5C0.750019 11.3829 11.3829 0.75 24.5 0.75ZM24.5 5.5C21.0981 5.49938 17.7585 6.41213 14.8298 8.14294C11.9011 9.87374 9.49086 12.3591 7.8507 15.3395C6.21055 18.3199 5.40066 21.686 5.50562 25.0862C5.61058 28.4865 6.62654 31.7962 8.44739 34.6698C8.91764 35.4107 9.11952 36.3228 8.96039 37.2276L8.86777 37.6147L7.82039 41.1796L11.3853 40.1323C12.4136 39.8283 13.4824 40.0135 14.3303 40.5526C16.82 42.1291 19.6424 43.1049 22.5742 43.4027C25.5061 43.7006 28.467 43.3123 31.2229 42.2688C33.9789 41.2252 36.4543 39.5549 38.4536 37.3898C40.4528 35.2247 41.921 32.6243 42.7421 29.7941C43.5632 26.9639 43.7148 23.9815 43.1847 21.0826C42.6547 18.1838 41.4576 15.4479 39.6881 13.0914C37.9186 10.7349 35.6252 8.82223 32.9893 7.50469C30.3533 6.18716 27.4469 5.50084 24.5 5.5ZM17.6173 13.062C17.8805 12.9493 18.1683 12.9065 18.4529 12.9377C18.7375 12.9689 19.0092 13.0731 19.2418 13.2401C20.4388 14.1141 21.3888 15.2874 22.2058 16.4321L22.9824 17.5579L23.3458 18.0923C23.5562 18.3985 23.6596 18.7657 23.6398 19.1368C23.6201 19.5079 23.4783 19.8621 23.2365 20.1443L23.0584 20.3247L20.8639 21.954C20.7595 22.0314 20.6861 22.1435 20.6569 22.2702C20.6278 22.3969 20.6447 22.5298 20.7048 22.6451C21.2035 23.5476 22.0846 24.8943 23.0964 25.906C24.1105 26.9177 25.5189 27.8583 26.4831 28.4116C26.6921 28.5304 26.9439 28.4924 27.1149 28.338L27.2051 28.2311L28.6325 26.058C28.8942 25.7084 29.2812 25.474 29.7122 25.404C30.1432 25.334 30.5846 25.4339 30.9434 25.6828L32.233 26.5829C33.5155 27.4972 34.7481 28.4805 35.7243 29.7274C35.9049 29.9617 36.0197 30.24 36.0568 30.5335C36.094 30.827 36.0522 31.1251 35.9356 31.397C34.9951 33.5915 32.613 35.4606 30.1383 35.3704L29.7606 35.3466L29.307 35.3039L29.0505 35.2706L28.4853 35.1756C26.2908 34.7624 22.7734 33.5179 19.1278 29.8746C15.4845 26.229 14.24 22.7116 13.8268 20.5171L13.7318 19.9519L13.6724 19.4579L13.6415 19.0422L13.632 18.8641C13.5418 16.3846 15.4204 14.0025 17.6173 13.062Z" fill="#D9CEBC"/>
</svg>
